<?xml version="1.0" encoding="UTF-8"?>
<svg version="1.1" xmlns="http://www.w3.org/2000/svg" width="980" height="904">
<path d="M0 0 C4.80027633 3.62638705 9.40021747 7.49865681 14.01416016 11.35693359 C16.96364622 13.7973124 19.97789125 16.15062539 23 18.5 C28.74114721 22.98063552 34.39696598 27.55959293 40.0390625 32.1640625 C44.32451618 35.65530083 48.64329453 39.09818888 53 42.5 C58.74010668 46.9820011 64.39693246 51.55956557 70.0390625 56.1640625 C74.32451618 59.65530083 78.64329453 63.09818888 83 66.5 C88.74010668 70.9820011 94.39693246 75.55956557 100.0390625 80.1640625 C104.32451618 83.65530083 108.64329453 87.09818888 113 90.5 C118.74010668 94.9820011 124.39693246 99.55956557 130.0390625 104.1640625 C134.32451618 107.65530083 138.64329453 111.09818888 143 114.5 C148.74010668 118.9820011 154.39693246 123.55956557 160.0390625 128.1640625 C164.32451618 131.65530083 168.64329453 135.09818888 173 138.5 C178.74010668 142.9820011 184.39693246 147.55956557 190.0390625 152.1640625 C194.32451618 155.65530083 198.64329453 159.09818888 203 162.5 C208.74010668 166.9820011 214.39693246 171.55956557 220.0390625 176.1640625 C224.32451618 179.65530083 228.64329453 183.09818888 233 186.5 C238.74010668 190.9820011 244.39693246 195.55956557 250.0390625 200.1640625 C254.32451618 203.65530083 258.64329453 207.09818888 263 210.5 C268.74010668 214.9820011 274.39693246 219.55956557 280.0390625 224.1640625 C284.32451618 227.65530083 288.64329453 231.09818888 293 234.5 C298.74010668 238.9820011 304.39693246 243.55956557 310.0390625 248.1640625 C314.32451618 251.65530083 318.64329453 255.09818888 323 258.5 C328.74010668 262.9820011 334.39693246 267.55956557 340.0390625 272.1640625 C344.32451933 275.6553034 348.64339626 279.09805533 353 282.5 C359.47919534 287.56195837 365.87077685 292.72634483 372.23046875 297.9375 C374.51869181 299.80910627 376.82385465 301.64670057 379.17578125 303.4375 C391.0646161 312.64600279 399.29906711 325.04852586 402 340 C403.63391592 357.0262695 400.80019646 371.81270572 390.0703125 385.453125 C381.73220034 395.16565126 371.49930964 402.9006969 361.44262695 410.73413086 C356.91300887 414.26422942 352.44805662 417.86782116 348 421.5 C342.47674994 426.00777649 336.90815183 430.44842939 331.2890625 434.8359375 C326.81563292 438.33776247 322.40132798 441.90811164 318 445.5 C312.47660315 450.00759973 306.90815564 454.44842642 301.2890625 458.8359375 C296.81563292 462.33776247 292.40132798 465.90811164 288 469.5 C282.47660315 474.00759973 276.90815564 478.44842642 271.2890625 482.8359375 C266.81563292 486.33776247 262.40132798 489.90811164 258 493.5 C252.47660315 498.00759973 246.90815564 502.44842642 241.2890625 506.8359375 C236.81563292 510.33776247 232.40132798 513.90811164 228 517.5 C222.47660315 522.00759973 216.90815564 526.44842642 211.2890625 530.8359375 C206.81563292 534.33776247 202.40132798 537.90811164 198 541.5 C192.47660315 546.00759973 186.90815564 550.44842642 181.2890625 554.8359375 C176.81563292 558.33776247 172.40132798 561.90811164 168 565.5 C162.47660315 570.00759973 156.90815564 574.44842642 151.2890625 578.8359375 C146.81563292 582.33776247 142.40132798 585.90811164 138 589.5 C132.47660315 594.00759973 126.90815564 598.44842642 121.2890625 602.8359375 C116.81563292 606.33776247 112.40132798 609.90811164 108 613.5 C102.47660315 618.00759973 96.90815564 622.44842642 91.2890625 626.8359375 C86.81563292 630.33776247 82.40132798 633.90811164 78 637.5 C72.47660315 642.00759973 66.90815564 646.44842642 61.2890625 650.8359375 C56.81563292 654.33776247 52.40132798 657.90811164 48 661.5 C42.47901768 666.00562925 36.91463004 670.44668951 31.2956543 674.8293457 C27.45253735 677.83527252 23.66016347 680.89745249 19.88623047 683.98974609 C2.78526803 697.99022794 -11.80155476 709.34900858 -34.76025391 708.2265625 C-42.84769762 707.40847358 -50.72463553 703.15675214 -56 697 C-63.56208558 686.84880787 -67.13039115 676.98894272 -67.12025452 664.31814575 C-67.12153615 663.34877935 -67.12153615 663.34877935 -67.12284368 662.35982978 C-67.12448208 660.20877048 -67.11900417 658.05779032 -67.11352539 655.90673828 C-67.11324314 654.35907493 -67.113402 652.81141144 -67.1139679 651.26374817 C-67.11425438 647.07207661 -67.1083816 642.88043376 -67.10139394 638.68876886 C-67.09513573 634.30454816 -67.09455465 629.92032677 -67.09336853 625.53610229 C-67.09026249 617.23833464 -67.0820589 608.94058018 -67.07201904 600.64281833 C-67.06083532 591.19425134 -67.05534176 581.74568371 -67.05032361 572.29711175 C-67.03987569 552.86473369 -67.02229032 533.43236791 -67 514 C-74.90222222 513.97218485 -82.80442316 513.95123544 -90.70668262 513.93847305 C-94.37809663 513.93234022 -98.04947657 513.9240553 -101.72087097 513.91041565 C-121.9709819 513.83721169 -141.90836313 514.07339024 -162 517 C-163.21026855 517.16628906 -164.42053711 517.33257813 -165.66748047 517.50390625 C-240.14556256 527.93257585 -310.57532056 558.64060076 -369 606 C-369.9384375 606.74507812 -370.876875 607.49015625 -371.84375 608.2578125 C-378.06302805 613.24395783 -383.93890787 618.53202265 -389.75390625 623.9765625 C-391.80307451 625.89495866 -393.870711 627.77778928 -395.96484375 629.6484375 C-415.35723971 646.98445859 -431.69019639 667.05785504 -447 688 C-447.54188965 688.73653809 -448.0837793 689.47307617 -448.64208984 690.23193359 C-456.83137481 701.40007417 -464.06781416 713.0165291 -471 725 C-471.41958984 725.71671875 -471.83917969 726.4334375 -472.27148438 727.171875 C-488.329851 754.685727 -500.98359753 783.94921937 -510.6953125 814.26171875 C-510.90559963 814.91571718 -511.11588676 815.56971561 -511.33254623 816.24353218 C-516.29379674 831.68923385 -520.91406622 847.23447665 -525.49432373 862.79656982 C-526.57147167 866.45311858 -527.65316043 870.10832396 -528.734375 873.76367188 C-530.82715828 880.84120052 -532.9152477 887.92010104 -535 895 C-537 894 -537 894 -537.9079895 891.6831665 C-538.2169516 890.65366882 -538.5259137 889.62417114 -538.84423828 888.56347656 C-539.19865997 887.39584778 -539.55308167 886.22821899 -539.91824341 885.02520752 C-540.30251505 883.73042044 -540.68653046 882.43555729 -541.0703125 881.140625 C-541.47368947 879.79887615 -541.87766158 878.45730609 -542.28219604 877.11590576 C-543.13595742 874.27903911 -543.98450244 871.4406819 -544.82910156 868.60107422 C-545.88395585 865.05492825 -546.94794593 861.51162055 -548.01557064 857.96930122 C-552.29269573 843.77205491 -556.46282428 829.54833448 -560.41796875 815.2578125 C-560.8931041 813.54395355 -560.8931041 813.54395355 -561.37783813 811.79547119 C-567.48633261 789.49859387 -571.84783326 766.89196501 -575 744 C-575.16661133 742.82083008 -575.33322266 741.64166016 -575.50488281 740.42675781 C-580.87579811 700.42845071 -580.91026655 655.90220065 -575 616 C-574.90054077 615.30996887 -574.80108154 614.61993774 -574.6986084 613.90899658 C-560.98962048 518.80454378 -522.7324925 426.45003615 -452.59765625 348.80859375 C-450.62602315 346.67685811 -448.72530629 344.52267662 -446.8359375 342.3203125 C-442.31171285 337.12850902 -437.44037825 332.29457707 -432.5625 327.4375 C-431.20801758 326.0772168 -431.20801758 326.0772168 -429.82617188 324.68945312 C-424.71158006 319.5822684 -419.49262068 314.6953869 -414 310 C-412.83141223 308.96701297 -411.6647095 307.93188912 -410.5 306.89453125 C-402.32936682 299.67499546 -393.9086433 292.95139996 -385.09765625 286.53125 C-382.94275458 284.95821191 -380.79929719 283.37039016 -378.65625 281.78125 C-362.3141402 269.73487289 -345.14804259 259.22357896 -327.41943359 249.34912109 C-325.92177565 248.51399922 -324.42674973 247.67411394 -322.93603516 246.82666016 C-277.13384857 220.81568591 -224.5109783 205.35124536 -172.625 197.75 C-171.59407227 197.59877686 -170.56314453 197.44755371 -169.50097656 197.29174805 C-166.00571732 196.81189501 -162.50504156 196.40002815 -159 196 C-158.28339706 195.91594501 -157.56679413 195.83189001 -156.82847595 195.7452879 C-138.70096973 193.69053988 -120.64670092 193.75766306 -102.43493652 193.8626709 C-98.4247454 193.8835111 -94.41452708 193.89234429 -90.40429688 193.90234375 C-82.60279305 193.92348811 -74.80141943 193.95740175 -67 194 C-67.00276538 193.15554195 -67.00553076 192.31108391 -67.00837994 191.44103622 C-67.07474224 170.8575825 -67.12433037 150.27414731 -67.15543652 129.69060898 C-67.1708805 119.73640847 -67.19192266 109.78227955 -67.22631836 99.828125 C-67.25629646 91.14826032 -67.27559293 82.46844751 -67.28226548 73.7885325 C-67.28616353 69.19605094 -67.29527264 64.60371771 -67.31719017 60.01128387 C-67.33768844 55.68077843 -67.34380708 51.35048115 -67.33932304 47.01993179 C-67.34014232 45.43820435 -67.34602803 43.85646929 -67.35761642 42.27478409 C-67.45948475 27.64208635 -65.81198064 13.79691085 -55.73828125 2.453125 C-39.81674792 -12.84354438 -17.75079086 -11.99377761 0 0 Z M-22 42 C-22 107.67 -22 173.34 -22 241 C-40.81 240.34 -59.62 239.68 -79 239 C-151.16508956 238.09567557 -219.20887892 247.69894882 -285 279 C-285.8573877 279.40412109 -286.71477539 279.80824219 -287.59814453 280.22460938 C-308.77542825 290.27009421 -329.035549 302.2153324 -348 316 C-348.99435059 316.72050537 -348.99435059 316.72050537 -350.00878906 317.45556641 C-358.70933618 323.79241681 -367.06252915 330.42678002 -375.19238281 337.47949219 C-376.53562073 338.60937951 -377.90376226 339.70979533 -379.28417969 340.79394531 C-387.26389067 347.10589967 -394.41504897 354.10956837 -401.58007812 361.31933594 C-403.62150377 363.37148541 -405.67341139 365.41271421 -407.7265625 367.453125 C-414.94744746 374.66674631 -421.68816625 381.97036686 -428 390 C-428.92254769 391.09053128 -429.85223012 392.17512162 -430.79296875 393.25 C-498.09741788 470.54581107 -533.14108729 575.94417401 -533.25 677.6875 C-533.25233643 678.68525452 -533.25467285 679.68300903 -533.25708008 680.71099854 C-533.27366275 699.59979454 -532.08144923 718.23374235 -530 737 C-527.87212889 734.30367786 -526.23378129 731.66860003 -524.7578125 728.5703125 C-524.33846436 727.70398193 -523.91911621 726.83765137 -523.48706055 725.94506836 C-523.03758057 725.0144458 -522.58810059 724.08382324 -522.125 723.125 C-504.6781046 687.7126365 -481.62949773 654.22140913 -454.94140625 625.125 C-453.08651255 623.09469382 -451.28991984 621.02506027 -449.5 618.9375 C-445.55362172 614.40375379 -441.28188533 610.21379882 -437 606 C-434.2596898 603.27330061 -431.53791666 600.53020607 -428.8359375 597.765625 C-422.75064585 591.566278 -416.64698475 585.64671141 -409.81640625 580.2578125 C-407.19853882 578.1591615 -404.68229165 575.98482979 -402.16650391 573.76708984 C-374.99112704 549.92244259 -343.15295943 531.24426891 -311 515 C-310.19868652 514.59394531 -309.39737305 514.18789063 -308.57177734 513.76953125 C-261.77998868 490.26836291 -209.93098252 476.38526306 -158 470.6875 C-157.2717804 470.60609772 -156.54356079 470.52469543 -155.79327393 470.44082642 C-132.56922173 467.89126729 -109.39486305 467.90491524 -86.0625 468.375 C-83.51238032 468.419873 -80.96224999 468.46414515 -78.41210938 468.5078125 C-59.60020702 468.85184526 -40.80896159 469.43003147 -22 470 C-22 532.04 -22 594.08 -22 658 C-17.1314487 654.34858652 -12.28021251 650.69991607 -7.5 646.9375 C-6.90960937 646.4734375 -6.31921875 646.009375 -5.7109375 645.53125 C-0.41631051 641.35536219 4.81276462 637.10089713 10.03710938 632.83764648 C14.88432503 628.88847452 19.78308122 625.0118407 24.7109375 621.1640625 C29.18436708 617.66223753 33.59867202 614.09188836 38 610.5 C43.52339685 605.99240027 49.09184436 601.55157358 54.7109375 597.1640625 C59.18436708 593.66223753 63.59867202 590.09188836 68 586.5 C73.52339685 581.99240027 79.09184436 577.55157358 84.7109375 573.1640625 C89.18436708 569.66223753 93.59867202 566.09188836 98 562.5 C103.52339685 557.99240027 109.09184436 553.55157358 114.7109375 549.1640625 C119.18436708 545.66223753 123.59867202 542.09188836 128 538.5 C133.52339685 533.99240027 139.09184436 529.55157358 144.7109375 525.1640625 C149.18436708 521.66223753 153.59867202 518.09188836 158 514.5 C163.52339685 509.99240027 169.09184436 505.55157358 174.7109375 501.1640625 C179.18436708 497.66223753 183.59867202 494.09188836 188 490.5 C193.52339685 485.99240027 199.09184436 481.55157358 204.7109375 477.1640625 C209.18436708 473.66223753 213.59867202 470.09188836 218 466.5 C223.52339685 461.99240027 229.09184436 457.55157358 234.7109375 453.1640625 C239.18436708 449.66223753 243.59867202 446.09188836 248 442.5 C253.52339685 437.99240027 259.09184436 433.55157358 264.7109375 429.1640625 C269.87151595 425.12433367 274.95096403 420.98855951 280.02807617 416.84472656 C284.99165484 412.80073008 290.00896383 408.83140873 295.05371094 404.8894043 C299.56087539 401.36146728 303.99809172 397.75404093 308.41796875 394.1171875 C312.57986759 390.70455638 316.79209669 387.35558477 321 384 C321.77730469 383.37609375 322.55460938 382.7521875 323.35546875 382.109375 C327.01582365 379.17153714 330.68050675 376.24201097 334.390625 373.3671875 C347.73956689 364.31347918 347.73956689 364.31347918 357 352 C356.8918707 346.16101766 354.93158721 343.07071798 351 339 C348.92104278 337.23628335 346.86071282 335.57175604 344.6875 333.9375 C343.44037899 332.97919997 342.19432755 332.01950678 340.94921875 331.05859375 C340.30259277 330.56085449 339.6559668 330.06311523 338.98974609 329.55029297 C335.6155546 326.92132168 332.31030532 324.20865041 329 321.5 C324.03820726 317.44954481 319.04844507 313.44193656 314 309.5 C308.25989332 305.0179989 302.60306754 300.44043443 296.9609375 295.8359375 C292.67548382 292.34469917 288.35670547 288.90181112 284 285.5 C278.25989332 281.0179989 272.60306754 276.44043443 266.9609375 271.8359375 C262.67548382 268.34469917 258.35670547 264.90181112 254 261.5 C248.25989332 257.0179989 242.60306754 252.44043443 236.9609375 247.8359375 C232.67548382 244.34469917 228.35670547 240.90181112 224 237.5 C218.25989332 233.0179989 212.60306754 228.44043443 206.9609375 223.8359375 C202.67548382 220.34469917 198.35670547 216.90181112 194 213.5 C188.25989332 209.0179989 182.60306754 204.44043443 176.9609375 199.8359375 C172.67548382 196.34469917 168.35670547 192.90181112 164 189.5 C158.25989332 185.0179989 152.60306754 180.44043443 146.9609375 175.8359375 C142.67548382 172.34469917 138.35670547 168.90181112 134 165.5 C128.25989332 161.0179989 122.60306754 156.44043443 116.9609375 151.8359375 C112.67548382 148.34469917 108.35670547 144.90181112 104 141.5 C98.25989332 137.0179989 92.60306754 132.44043443 86.9609375 127.8359375 C82.67548382 124.34469917 78.35670547 120.90181112 74 117.5 C68.25989332 113.0179989 62.60306754 108.44043443 56.9609375 103.8359375 C52.67548382 100.34469917 48.35670547 96.90181112 44 93.5 C38.25908539 89.01736805 32.60112223 84.43955976 26.95874023 79.83374023 C22.69688973 76.36106422 18.39865421 72.94178291 14.0625 69.5625 C8.7211042 65.39636521 3.47196265 61.12726699 -1.75 56.8125 C-2.46994141 56.21816162 -3.18988281 55.62382324 -3.93164062 55.01147461 C-9.29241043 50.58513392 -9.29241043 50.58513392 -11.69287109 48.60009766 C-13.10358837 47.43667029 -14.52025858 46.280471 -15.9375 45.125 C-16.68902344 44.50882813 -17.44054687 43.89265625 -18.21484375 43.2578125 C-19.90852519 41.80800643 -19.90852519 41.80800643 -22 42 Z " fill="#060606" transform="translate(578,9)"/>
<path d="M0 0 C0.66 0.33 1.32 0.66 2 1 C-11.2 14.2 -24.4 27.4 -38 41 C-38.66 40.67 -39.32 40.34 -40 40 C-33.3346682 32.49588487 -26.4008703 25.29242385 -19.3125 18.1875 C-18.51739014 17.38787842 -17.72228027 16.58825684 -16.90307617 15.7644043 C-12.60574281 11.47777525 -8.23028299 7.35024976 -3.61791992 3.40356445 C-2.36721036 2.31855928 -1.1707926 1.1707926 0 0 Z " fill="#5F5F5F" transform="translate(166,317)"/>
<path d="M0 0 C0.66 0.33 1.32 0.66 2 1 C-7.57 10.57 -17.14 20.14 -27 30 C-27.66 29.67 -28.32 29.34 -29 29 C-28.39671875 28.40832031 -27.7934375 27.81664062 -27.171875 27.20703125 C-22.34479969 22.48115154 -22.34479969 22.48115154 -17.9375 17.375 C-15.61095332 14.52310407 -12.9659576 12.29848637 -10.171875 9.9140625 C-6.61395174 6.77848265 -3.31216096 3.39144141 0 0 Z " fill="#626262" transform="translate(160,595)"/>
<path d="M0 0 C0.66 0.33 1.32 0.66 2 1 C-2.29 5.29 -6.58 9.58 -11 14 C-11 10.30159372 -10.17133056 9.68584567 -7.75 7 C-7.14671875 6.319375 -6.5434375 5.63875 -5.921875 4.9375 C-4.06233388 3.06284066 -2.15205789 1.52358081 0 0 Z " fill="#676767" transform="translate(530,5)"/>
</svg>
